<?xml version="1.0" encoding="UTF-8" standalone="no"?><!DOCTYPE svg PUBLIC "-//W3C//DTD SVG 1.1//EN" "http://www.w3.org/Graphics/SVG/1.1/DTD/svg11.dtd"><svg width="100%" height="100%" viewBox="0 0 144 144" version="1.1" xmlns="http://www.w3.org/2000/svg" xmlns:xlink="http://www.w3.org/1999/xlink" xml:space="preserve" xmlns:serif="http://www.serif.com/" style="fill-rule:evenodd;clip-rule:evenodd;stroke-linejoin:round;stroke-miterlimit:2;"><g id="Background"><path d="M-50.88,-80.88l245.76,0c0.058,0.035 -0,0.052 -0,0.84l0,244.92c-0.035,0.058 -0.052,0 -0.84,0l-244.92,0c-0.103,-0.062 0,-0.24 0,-0.36l0,-245.4Z" style="fill:#fefefe;"/><path d="M103.039,48.527c1.202,-0.657 4.922,-2.869 6.228,-3.616c5.175,-2.957 8.605,-4.995 9.87,-5.711c2.812,-1.591 2.795,-1.614 5.601,-3.219c0.449,-0.257 0.537,-0.265 2.077,0.659c2.414,1.449 2.571,1.383 2.629,1.883c0.024,0.207 0.017,4.192 0.017,4.556c-0.007,4.325 0.019,4.367 -0.189,4.591c-0.252,0.27 -3.904,2.322 -4.633,2.78c-0.379,0.238 -1.79,1.066 -1.946,1.157c-1.244,0.73 -1.259,0.696 -2.506,1.426c-1.47,0.861 -1.444,0.901 -1.573,0.975c-2.138,1.224 -2.133,1.23 -2.322,1.331c-0.042,0.022 -5.924,3.44 -6.048,3.514c-1.75,1.054 -1.781,0.993 -3.532,2.042c-1.741,1.043 -21.053,12.212 -21.666,12.608c-0.655,0.424 -4.999,2.889 -5.2,3.01c-1.228,0.744 -1.399,0.691 -1.473,1.128c-0.006,0.038 0.001,31.838 0.007,38.878c0.004,3.762 -0.054,3.756 -0.038,4.082c0.018,0.359 0.208,0.361 0.243,0.362c0.008,0 0.351,-0.191 0.426,-0.241c0.679,-0.455 19.392,-11.221 19.558,-11.31c1.471,-0.79 2.114,-1.235 2.884,-1.68c0.283,-0.163 3.5,-2.02 3.532,-2.037c0.77,-0.398 9.806,-5.636 9.883,-5.685c0.872,-0.549 1.747,-0.807 1.861,-1.259c0.001,-0.005 0.036,-0.005 0.024,-8.873c-0.007,-4.86 0.041,-4.859 0.001,-5.279c-0.023,-0.234 -0.209,-0.239 -0.236,-0.24c-0.281,-0.008 -0.256,0.071 -0.493,0.215c-0.259,0.157 -0.256,0.16 -0.279,0.173c-4.895,2.814 -4.865,2.853 -5.291,3.097c-4.715,2.701 -10.958,6.369 -10.965,6.373c-0.374,0.199 -4.457,2.598 -7.643,4.384c-0.495,0.278 -0.496,0.389 -0.707,0.28c-0.312,-0.16 -0.147,-0.256 -0.137,-0.603c0.012,-0.442 0.004,-11.167 0.002,-12c-0.003,-1.413 -0.125,-1.559 0.531,-1.958c0.141,-0.086 1.049,-0.639 1.768,-1.052c4.282,-2.464 4.283,-2.453 8.551,-4.949c1.279,-0.748 1.286,-0.73 1.397,-0.795c2.223,-1.307 2.229,-1.287 2.419,-1.404c0.314,-0.193 2.555,-1.469 2.885,-1.673c1.244,-0.77 3.261,-1.838 8.666,-4.995c2.988,-1.746 3,-1.722 3.817,-2.201c1.208,-0.709 1.204,-0.713 1.309,-0.774c3.08,-1.786 3.074,-1.793 3.345,-1.942c1.732,-0.951 1.711,-0.981 1.862,-1.062c1.388,-0.742 1.349,-0.815 1.482,-0.847c0.398,-0.098 0.416,0.33 0.417,0.375c0.004,0.088 0.003,7.284 0.003,7.918c-0.004,34.371 0.043,34.373 0.003,34.799c-0.061,0.651 -0.954,0.877 -1.609,1.284c-1.539,0.957 -6.139,3.513 -6.806,3.941c-0.587,0.376 -16.294,9.382 -16.938,9.77c-1.482,0.892 -1.508,0.841 -2.998,1.72c-1.796,1.059 -1.783,1.078 -1.941,1.168c-1.19,0.674 -1.202,0.652 -1.305,0.711c-0.194,0.111 -1.85,1.062 -2.42,1.404c-1.203,0.722 -19.398,11.21 -19.46,11.245c-2.675,1.506 -2.648,1.549 -2.881,1.678c-0.933,0.519 -1.006,0.712 -1.742,0.269c-2.293,-1.381 -16.319,-9.413 -23.543,-13.638c-1.852,-1.083 -1.878,-1.032 -3.734,-2.109c-1.263,-0.734 -1.241,-0.765 -2.507,-1.494c-3.087,-1.777 -3.082,-1.779 -3.352,-1.931c-5.404,-3.042 -5.354,-3.124 -7.916,-4.564c-0.262,-0.147 -2.556,-1.436 -3.258,-1.86c-1.187,-0.717 -1.209,-0.672 -1.684,-0.954c-3.743,-2.225 -3.763,-2.191 -4.088,-2.385c-1.517,-0.907 -4.273,-2.442 -4.392,-2.517c-1.632,-1.02 -2.232,-1.173 -2.303,-1.744c-0.066,-0.533 -0.034,-0.534 -0.028,-6.713c0.054,-55.425 -0.053,-55.421 -0.001,-60.24c0.007,-0.625 0.134,-0.653 2.077,-1.766c1.717,-0.983 1.989,-1.24 2.439,-1.092c0.2,0.066 9.391,5.399 10.07,5.771c0.215,0.118 3.502,2.031 3.633,2.101c0.039,0.021 1.796,1.022 1.86,1.062c0.842,0.528 4.677,2.757 6.233,3.618c1.057,0.586 7.359,4.298 7.72,4.488c1.182,0.622 5.603,3.26 6.235,3.611c0.605,0.336 6.768,3.865 7.175,4.117c0.622,0.385 1.086,0.672 7.908,4.585c1.911,1.096 1.897,1.204 2.226,1.153c0.126,-0.019 0.62,-0.32 0.672,-0.351c0.511,-0.311 0.521,-0.284 1.029,-0.606c0.071,-0.045 28.933,-16.782 29.209,-16.925Z" style="fill:#241f56;"/><path d="M48.799,111.315c-0.465,-0.264 -9.513,-5.494 -10.34,-5.972c-8.822,-5.099 -10.489,-5.997 -10.718,-6.139c-0.619,-0.382 -0.503,-0.512 -0.502,-1.644c0.052,-37.537 -0.007,-37.536 0.01,-40.8c0.006,-1.095 -0.081,-1.491 0.22,-1.506c0.139,-0.007 0.486,0.219 0.525,0.244c0.323,0.21 14.25,8.287 15.058,8.749c1.643,0.939 1.623,0.97 1.766,1.052c6.874,3.924 6.837,3.985 7.437,4.323c2.386,1.347 11.587,6.751 12.646,7.332c0.87,0.478 0.742,0.652 0.744,1.645c0.005,3.014 0.035,22.116 -0.002,37.68c-0.01,4.358 0.077,4.389 -0.045,4.53c-0.188,0.217 -0.722,-0.183 -0.875,-0.281c-0.34,-0.218 -1.102,-0.637 -1.212,-0.703c-0.593,-0.349 -2.995,-1.764 -7.446,-4.308c-0.896,-0.512 -0.878,-0.532 -1.771,-1.045c-0.439,-0.253 -5.338,-3.071 -5.494,-3.158Z" style="fill:#fefefe;"/><path d="M98.331,34.831c-0.347,-0.195 -0.521,-0.306 -0.565,-0.334c-0.263,-0.167 -0.257,-0.169 -0.279,-0.183c-0.183,-0.111 -1.627,-0.983 -2.307,-1.35c-0.211,-0.114 -1.686,-0.91 -2.613,-1.483c-0.648,-0.401 -3.275,-1.909 -3.447,-2.011c-2.543,-1.511 -2.574,-1.455 -2.793,-1.591c-1.8,-1.12 -11.597,-6.7 -13.765,-8.016c-0.52,-0.316 -0.722,-0.259 -1.684,0.344c-0.016,0.01 -2.598,1.531 -3.058,1.786c-1.233,0.682 -3.148,1.847 -3.442,2.006c-1.418,0.769 -1.398,0.792 -2.792,1.603c-0.216,0.126 -2.417,1.405 -2.697,1.583c-0.606,0.384 -11.82,6.824 -12.185,7.049c-1.226,0.755 -4.111,2.384 -4.275,2.48c-4.982,2.912 -4.984,2.918 -5.119,2.933c-0.21,0.024 -0.323,0.037 -2.35,-1.195c-4.215,-2.562 -5.949,-3.441 -6.96,-4.078c-2.178,-1.373 -2.618,-1.534 -2.869,-1.689c-0.732,-0.451 0.113,-0.526 2.878,-2.247c0.214,-0.133 4.1,-2.368 4.457,-2.573c3.876,-2.229 3.861,-2.245 4.198,-2.438c5.217,-2.979 5.217,-2.971 5.504,-3.152c0.987,-0.623 2.214,-1.312 2.409,-1.421c3.933,-2.208 3.892,-2.27 7.819,-4.498c3.244,-1.84 3.868,-2.25 5.308,-3.067c0.112,-0.063 1.374,-0.78 1.399,-0.794c4.458,-2.578 4.44,-2.607 4.831,-2.825c3.808,-2.119 3.769,-2.181 4.104,-2.357c1.283,-0.672 3.549,-2.242 4.086,-2.179c0.337,0.039 4.328,2.494 7.386,4.193c0.408,0.227 4.292,2.519 6.514,3.78c3.31,1.879 3.283,1.919 6.237,3.606c6.35,3.625 6.32,3.668 12.674,7.284c1.226,0.698 8.914,5.154 9.688,5.603c3.93,2.278 3.949,2.247 4.263,2.486c0.656,0.499 -0.109,0.521 -2.164,1.809c-0.913,0.572 -2.812,1.646 -3.058,1.786c-0.601,0.34 -2.029,1.213 -2.415,1.414c-0.775,0.404 -1.332,0.804 -2.595,1.518c-0.464,0.262 -1.477,0.934 -1.756,1.004c-0.161,0.04 -0.238,0.059 -1.865,-0.914c-0.325,-0.194 -1.987,-1.188 -4.092,-2.379c-0.895,-0.506 -1.959,-1.156 -2.609,-1.494Z" style="fill:#241f56;"/></g></svg>